#!OML:ASF H:\Pregnant\Project 1\Capture day 1\Session 1\femalepreg.ASF
:FULLY-SPECIFIED
:DEGREES
743
root 3.07883 6.71453 18.5766 -108.353 8.59148 168.487
lowerback 8.92044 -3.2113 1.40048
upperback 9.67809 -3.0886 -1.4274
thorax 4.95301 -1.01678 -2.09463
lowerneck -24.7737 1.13932 0.115394
upperneck 25.439 2.01509 -0.0950512
head 12.5736 0.973703 0.321851
rclavicle -7.15625e-015 -2.56432e-014
rhumerus 53.0244 20.5467 -56.5977
rradius 114.867
rwrist 9.9339
rhand -22.4596 -44.4353
rfingers 7.12502
rthumb 3.96498 -74.3782
lclavicle -7.15625e-015 -2.56432e-014
lhumerus 42.6017 -12.2535 86.8094
lradius 103.827
lwrist -11.8461
lhand -16.3928 -371.406
lfingers 7.12502
lthumb 9.82117 18.3449
rfemur -14.643 4.86314 6.63263
rtibia 26.13
rfoot 41.3108 -0.837434
rtoes -15.4105
lfemur -184.231 -18.6356 -46.822
ltibia 109.497
lfoot 7.04954 0.35303
ltoes 17.3636
744
root 3.08174 6.70999 18.5692 -108.255 8.55831 168.396
lowerback 8.84155 -3.29642 1.43706
upperback 9.70499 -3.19535 -1.47423
thorax 5.01607 -1.06371 -2.16248
lowerneck -24.5706 1.15181 0.203229
upperneck 25.8332 2.02401 -0.0154079
head 12.6916 1.0049 0.342418
rclavicle -1.11319e-014 3.38928e-014
rhumerus 53.0864 20.6811 -56.711
rradius 114.999
rwrist 9.93892
rhand -22.4761 -45.0176
rfingers 7.12502
rthumb 3.94903 -74.9607
lclavicle -1.11319e-014 3.38928e-014
lhumerus 42.5083 -12.236 86.7063
lradius 104.164
lwrist -12.2041
lhand -15.8569 -371.562
lfingers 7.12502
lthumb 10.3382 18.1641
rfemur -14.6511 4.80512 6.64124
rtibia 26.0517
rfoot 41.225 -0.845646
rtoes -15.1496
lfemur -184.293 -18.7506 -46.7973
ltibia 109.513
lfoot 7.03763 0.356946
ltoes 17.361
745
root 3.08421 6.70595 18.5616 -108.143 8.51458 168.287
lowerback 8.73819 -3.39311 1.47871
upperback 9.72884 -3.31889 -1.51977
thorax 5.08811 -1.119 -2.23231
lowerneck -24.3495 1.15967 0.274114
upperneck 26.2253 2.03665 0.0624192
head 12.8057 1.03645 0.365891
rclavicle 1.27222e-014 -1.11319e-014
rhumerus 53.1362 20.8522 -56.8237
rradius 115.123
rwrist 10.0228
rhand -22.5373 -45.5512
rfingers 7.12502
rthumb 3.88997 -75.4955
lclavicle 1.27222e-014 -1.11319e-014
lhumerus 42.4777 -12.2433 86.4634
lradius 104.406
lwrist -12.4062
lhand -15.5828 -371.609
lfingers 7.12502
lthumb 10.6026 18.1032
rfemur -14.666 4.72515 6.64985
rtibia 25.9654
rfoot 41.1794 -0.840404
rtoes -15.0899
lfemur -184.343 -18.8922 -46.7635
ltibia 109.514
lfoot 7.02175 0.364721
ltoes 17.3538
746
root 3.08636 6.70221 18.5538 -108.021 8.46185 168.168
lowerback 8.60524 -2.13535 1.73355
upperback 9.77351 -3.85662 -1.4021
thorax 5.20475 -2.16384 -2.30993
lowerneck -24.1004 1.16363 0.346043
upperneck 26.61 2.04984 0.129511
head 12.912 1.06758 0.385095
rclavicle -4.05521e-014 -4.67144e-015
rhumerus 53.1741 21.0403 -56.9409
rradius 115.238
rwrist 10.1422
rhand -22.5651 -46.0545
rfingers 7.12502
rthumb 3.86309 -75.9992
lclavicle -4.05521e-014 -4.67144e-015
lhumerus 42.4184 -12.2539 86.2247
lradius 104.714
lwrist -12.6302
lhand -15.409 -371.612
lfingers 7.12502
lthumb 10.7702 18.092
rfemur -14.683 4.63424 6.66079
rtibia 25.8644
rfoot 41.1831 -0.809787
rtoes -15.255
lfemur -184.385 -19.0485 -46.7188
ltibia 109.505
lfoot 7.00392 0.372175
ltoes 17.3422
747
root 3.08847 6.69825 18.5455 -107.901 8.40577 168.045
lowerback 8.47543 -2.23638 1.7822
upperback 9.79658 -3.99322 -1.45389
thorax 5.2888 -2.22592 -2.39378
lowerneck -23.8254 1.16485 0.436039
upperneck 26.9841 2.06287 0.171414
head 13.0098 1.09759 0.391324
rclavicle -2.22639e-014 -1.51076e-014
rhumerus 53.2176 21.2111 -57.0611
rradius 115.336
rwrist 10.2533
rhand -22.5113 -46.5362
rfingers 7.12502
rthumb 3.915 -76.48
lclavicle -2.22639e-014 -1.51076e-014
lhumerus 42.3535 -12.2704 85.9886
lradius 105.055
lwrist -12.8242
lhand -15.3212 -371.628
lfingers 7.12502
lthumb 10.8549 18.072
rfemur -14.6822 4.54606 6.6735
rtibia 25.7388
rfoot 41.1967 -0.798109
rtoes -15.4075
lfemur -184.423 -19.2023 -46.6689
ltibia 109.5
lfoot 6.98105 0.38312
ltoes 17.3488
748
root 3.0907 6.69389 18.5364 -107.798 8.34642 167.928
lowerback 8.34954 -2.32812 1.83707
upperback 9.82436 -4.11803 -1.5064
thorax 5.37566 -2.2818 -2.48289
lowerneck -23.5061 1.15539 0.530784
upperneck 27.3412 2.06814 0.194798
head 13.0924 1.12293 0.3877
rclavicle 1.11319e-014 2.65378e-014
rhumerus 53.2596 21.339 -57.1748
rradius 115.417
rwrist 10.3312
rhand -22.3673 -47.0003
rfingers 7.12502
rthumb 4.05412 -76.9415
lclavicle 1.11319e-014 2.65378e-014
lhumerus 42.3196 -12.3035 85.7509
lradius 105.359
lwrist -12.9427
lhand -15.2908 -371.66
lfingers 7.12502
lthumb 10.8842 18.0378
rfemur -14.643 4.47286 6.69404
rtibia 25.5765
rfoot 41.2159 -0.804828
rtoes -15.5209
lfemur -184.46 -19.3399 -46.6144
ltibia 109.51
lfoot 6.95219 0.397521
ltoes 17.3609
